<svg width="16" height="16" viewBox="0 0 16 16" fill="none" xmlns="http://www.w3.org/2000/svg">
<path d="M7.3 15.3C7.11667 15.1167 7.02067 14.8833 7.012 14.6C7.004 14.3167 7.09167 14.0833 7.275 13.9L12.175 9H1C0.716667 9 0.479 8.904 0.287 8.712C0.0956668 8.52067 0 8.28334 0 8C0 7.71667 0.0956668 7.479 0.287 7.287C0.479 7.09567 0.716667 7 1 7H12.175L7.275 2.1C7.09167 1.91667 7.004 1.68334 7.012 1.4C7.02067 1.11667 7.11667 0.883336 7.3 0.700003C7.48333 0.516669 7.71667 0.425003 8 0.425003C8.28333 0.425003 8.51667 0.516669 8.7 0.700003L15.3 7.3C15.4 7.38334 15.471 7.48734 15.513 7.612C15.5543 7.73734 15.575 7.86667 15.575 8C15.575 8.13334 15.5543 8.25834 15.513 8.375C15.471 8.49167 15.4 8.6 15.3 8.7L8.7 15.3C8.51667 15.4833 8.28333 15.575 8 15.575C7.71667 15.575 7.48333 15.4833 7.3 15.3Z" fill="black"/>
</svg>
