<svg width="128" height="128" viewBox="0 0 128 128" fill="none" xmlns="http://www.w3.org/2000/svg">
<path d="M64 128C47.0261 128 30.7475 121.257 18.7452 109.255C6.74284 97.2525 -4.72181e-07 80.9739 0 64C4.72181e-07 47.0261 6.74284 30.7475 18.7452 18.7452C30.7475 6.74284 47.0261 -2.02411e-07 64 0L64 7.94707C49.1338 7.94707 34.8766 13.8526 24.3646 24.3646C13.8526 34.8766 7.94707 49.1338 7.94707 64C7.94707 78.8662 13.8526 93.1234 24.3646 103.635C34.8766 114.147 49.1338 120.053 64 120.053L64 128Z" fill="#290F01"/>
<path d="M63.998 113.778C50.7961 113.778 38.1349 108.534 28.7998 99.1986C19.4646 89.8635 14.2202 77.2023 14.2202 64.0004C14.2202 50.7985 19.4646 38.1374 28.7998 28.8022C38.1349 19.4671 50.7961 14.2227 63.998 14.2227L63.998 20.4037C52.4354 20.4037 41.3464 24.9969 33.1705 33.1729C24.9945 41.3489 20.4013 52.4379 20.4013 64.0004C20.4013 75.563 24.9945 86.652 33.1705 94.828C41.3464 103.004 52.4354 107.597 63.998 107.597L63.998 113.778Z" fill="#945F1E"/>
<path d="M64.002 113.778C77.2039 113.778 89.8651 108.534 99.2002 99.1986C108.535 89.8635 113.78 77.2023 113.78 64.0004C113.78 50.7985 108.535 38.1374 99.2002 28.8022C89.8651 19.4671 77.2039 14.2227 64.002 14.2227L64.002 20.4037C75.5646 20.4037 86.6536 24.9969 94.8295 33.1729C103.006 41.3489 107.599 52.4379 107.599 64.0004C107.599 75.563 103.006 86.652 94.8295 94.828C86.6536 103.004 75.5646 107.597 64.002 107.597L64.002 113.778Z" fill="#945F1E"/>
<path d="M63.9987 99.5547C73.4286 99.5547 82.4723 95.8087 89.1402 89.1407C95.8082 82.4728 99.5542 73.4291 99.5542 63.9992C99.5542 54.5692 95.8082 45.5255 89.1402 38.8576C82.4723 32.1896 73.4286 28.4436 63.9987 28.4436L63.9987 32.8586C72.2576 32.8586 80.1783 36.1395 86.0183 41.9795C91.8583 47.8195 95.1392 55.7402 95.1392 63.9992C95.1392 72.2581 91.8583 80.1789 86.0183 86.0188C80.1783 91.8588 72.2576 95.1397 63.9987 95.1397L63.9987 99.5547Z" fill="#FDCF98"/>
</svg>
