<svg width="45" height="45" viewBox="0 0 45 45" fill="none" xmlns="http://www.w3.org/2000/svg">
<path d="M22.5 45C16.5326 45 10.8097 42.6295 6.5901 38.4099C2.37053 34.1903 -1.66001e-07 28.4674 0 22.5C1.66001e-07 16.5326 2.37053 10.8097 6.5901 6.5901C10.8097 2.37053 16.5326 -7.11602e-08 22.5 0V2.79389C17.2736 2.79389 12.2613 4.87006 8.56568 8.56568C4.87006 12.2613 2.79389 17.2736 2.79389 22.5C2.79389 27.7264 4.87006 32.7387 8.56568 36.4343C12.2613 40.1299 17.2736 42.2061 22.5 42.2061L22.5 45Z" fill="#290F01"/>
<path d="M22.5 40C17.8587 40 13.4075 38.1563 10.1256 34.8744C6.84374 31.5925 5 27.1413 5 22.5C5 17.8587 6.84374 13.4075 10.1256 10.1256C13.4075 6.84374 17.8587 5 22.5 5V7.17303C18.435 7.17303 14.5366 8.78783 11.6622 11.6622C8.78783 14.5366 7.17303 18.435 7.17303 22.5C7.17303 26.565 8.78783 30.4634 11.6622 33.3378C14.5366 36.2122 18.435 37.827 22.5 37.827V40Z" fill="#945F1E"/>
<path d="M22.5 40C27.1413 40 31.5925 38.1563 34.8744 34.8744C38.1563 31.5925 40 27.1413 40 22.5C40 17.8587 38.1563 13.4075 34.8744 10.1256C31.5925 6.84374 27.1413 5 22.5 5V7.17303C26.565 7.17303 30.4634 8.78783 33.3378 11.6622C36.2122 14.5366 37.827 18.435 37.827 22.5C37.827 26.565 36.2122 30.4634 33.3378 33.3378C30.4634 36.2122 26.565 37.827 22.5 37.827V40Z" fill="#945F1E"/>
<path d="M22.5 35C25.8152 35 28.9946 33.683 31.3388 31.3388C33.683 28.9946 35 25.8152 35 22.5C35 19.1848 33.683 16.0054 31.3388 13.6612C28.9946 11.317 25.8152 10 22.5 10V11.5522C25.4035 11.5522 28.1882 12.7056 30.2413 14.7587C32.2944 16.8118 33.4478 19.5965 33.4478 22.5C33.4478 25.4035 32.2944 28.1882 30.2413 30.2413C28.1882 32.2944 25.4035 33.4478 22.5 33.4478V35Z" fill="#FDCF98"/>
</svg>
